<?xml version="1.0" standalone="no"?>
<!DOCTYPE svg PUBLIC "-//W3C//DTD SVG 20010904//EN"
 "http://www.w3.org/TR/2001/REC-SVG-20010904/DTD/svg10.dtd">
<svg version="1.0" xmlns="http://www.w3.org/2000/svg"
 width="498.000000pt" height="498.000000pt" viewBox="0 0 498.000000 498.000000"
 preserveAspectRatio="xMidYMid meet">

<g transform="translate(0.000000,498.000000) scale(0.100000,-0.100000)"
fill="#000000" stroke="none">
<path d="M547 3153 c-4 -3 -7 -43 -7 -89 0 -56 -4 -84 -12 -88 -10 -5 -10 -7
0 -12 8 -4 12 -30 12 -79 0 -60 -3 -76 -17 -84 -17 -9 -17 -10 0 -16 14 -6 17
-20 17 -75 0 -55 -3 -69 -17 -75 -17 -6 -17 -7 0 -16 14 -8 17 -24 17 -78 0
-56 -3 -70 -17 -76 -17 -6 -17 -7 0 -19 15 -12 17 -33 17 -195 l0 -181 400 0
400 0 0 34 c0 58 38 161 89 239 27 41 54 77 59 81 13 8 47 -39 56 -77 3 -15 2
-36 -4 -46 -7 -15 -6 -20 6 -25 33 -13 74 -5 101 18 23 20 28 32 27 66 -2 50
-29 83 -91 106 -23 9 -43 20 -43 24 0 14 60 29 90 23 17 -3 45 -23 65 -44 38
-43 45 -46 45 -24 0 24 -60 84 -94 93 -29 8 -69 3 -108 -13 -15 -6 -18 -1 -18
31 0 48 -31 101 -63 109 -36 9 -90 2 -95 -13 -3 -10 4 -12 31 -7 43 8 72 -6
92 -45 27 -53 15 -121 -16 -84 -34 41 -122 59 -168 34 -42 -22 -64 -98 -40
-141 16 -31 27 -14 22 35 -4 35 -1 48 16 65 32 32 69 37 110 15 52 -28 49 -40
-10 -47 -49 -6 -79 -20 -68 -32 3 -2 22 0 43 6 20 6 51 9 68 7 l30 -3 -51 -77
c-66 -98 -90 -153 -99 -225 l-7 -58 -73 -3 -72 -3 0 259 c0 222 2 261 15 266
8 3 15 10 15 16 0 5 -7 10 -15 10 -12 0 -15 14 -15 70 0 56 3 70 15 70 8 0 15
4 15 9 0 5 -7 11 -15 15 -11 4 -15 22 -15 76 0 54 4 72 15 76 19 8 19 24 0 24
-12 0 -15 17 -15 90 l0 90 -308 0 c-170 0 -312 -3 -315 -7z m593 -98 l0 -75
-285 0 -285 0 0 75 0 75 285 0 285 0 0 -75z m2 -171 c2 -46 -1 -78 -7 -80 -6
-3 -134 -3 -285 -2 l-275 3 -3 78 -3 77 285 0 284 0 4 -76z m-2 -174 l0 -70
-285 0 -285 0 0 70 0 70 285 0 285 0 0 -70z m0 -170 l0 -70 -285 0 -285 0 0
70 0 70 285 0 285 0 0 -70z m434 -94 c38 -16 76 -60 76 -88 0 -23 -43 -68 -65
-68 -11 0 -15 10 -15 38 0 22 -10 53 -25 77 -37 60 -32 67 29 41z m-434 -181
l0 -176 -77 3 -78 3 -3 108 -3 107 -119 0 -120 0 0 -110 0 -110 -85 0 -85 0 0
175 0 175 285 0 285 0 0 -175z m-182 -77 l3 -98 -96 0 -95 0 0 93 c0 52 3 97
7 101 4 4 46 5 93 4 l85 -3 3 -97z"/>
<path d="M1752 3073 c4 -39 28 -42 28 -4 0 21 -5 31 -16 31 -11 0 -14 -8 -12
-27z"/>
<path d="M1608 3034 c-4 -3 -3 -15 2 -24 10 -19 40 -35 40 -21 0 15 -35 53
-42 45z"/>
<path d="M1882 3020 c-23 -25 -28 -40 -14 -40 15 0 44 38 40 51 -3 8 -12 4
-26 -11z"/>
<path d="M1689 2951 c-22 -23 -29 -39 -29 -69 0 -109 135 -138 183 -40 16 32
17 44 7 72 -23 70 -108 89 -161 37z m118 -13 c39 -37 30 -99 -19 -124 -62 -32
-125 30 -98 96 22 53 76 66 117 28z"/>
<path d="M1910 2880 c-21 -6 -22 -8 -8 -14 21 -10 52 -4 51 9 -2 13 -13 14
-43 5z"/>
<path d="M1555 2870 c3 -5 17 -10 30 -10 13 0 27 5 30 10 4 6 -8 10 -30 10
-22 0 -34 -4 -30 -10z"/>
<path d="M1625 2750 c-10 -11 -15 -23 -12 -27 8 -7 47 25 47 39 0 14 -16 9
-35 -12z"/>
<path d="M1890 2431 c0 -105 -5 -201 -10 -218 -14 -38 -49 -57 -93 -50 -30 5
-36 2 -41 -16 -7 -28 3 -38 50 -43 51 -6 102 20 129 66 18 32 20 56 23 243 l4
207 -31 0 -31 0 0 -189z"/>
<path d="M2145 2483 c-69 -18 -119 -97 -119 -188 1 -113 77 -195 179 -195 102
0 175 82 175 198 0 136 -104 218 -235 185z m114 -58 c42 -21 64 -76 59 -147
-4 -50 -9 -64 -36 -90 -25 -26 -39 -31 -76 -31 -71 0 -116 55 -116 142 0 110
82 172 169 126z"/>
<path d="M2996 2475 c-16 -9 -35 -23 -42 -33 -12 -15 -13 -14 -14 11 0 23 -4
27 -30 27 l-30 0 0 -190 0 -190 30 0 30 0 0 125 c0 168 19 205 104 205 33 0
36 2 36 30 0 26 -4 30 -27 30 -16 0 -41 -7 -57 -15z"/>
<path d="M3257 2470 c-31 -17 -37 -17 -37 -5 0 10 -11 15 -35 15 l-35 0 0
-191 0 -190 33 3 32 3 5 141 c6 156 10 167 70 185 29 9 43 8 66 -2 46 -22 54
-51 54 -196 l0 -133 30 0 30 0 0 146 c0 116 -3 153 -17 181 -29 62 -123 82
-196 43z"/>
<path d="M3610 2476 c-36 -13 -46 -31 -32 -54 7 -10 16 -9 45 3 78 33 157 3
157 -58 0 -29 -16 -37 -78 -37 -52 0 -121 -30 -140 -61 -17 -26 -18 -89 -3
-117 29 -55 124 -68 185 -27 46 31 46 31 46 -1 0 -22 4 -25 28 -22 l27 3 3
125 c4 205 -22 252 -141 257 -34 1 -78 -3 -97 -11z m170 -226 c0 -70 -67 -116
-130 -90 -35 14 -48 50 -32 85 11 25 61 42 125 44 37 1 37 1 37 -39z"/>
<path d="M4384 2471 c-54 -24 -84 -75 -91 -150 -12 -129 62 -221 178 -221 58
0 123 40 149 90 29 56 27 161 -3 215 -42 76 -147 105 -233 66z m144 -47 c70
-49 72 -197 2 -251 -21 -17 -101 -16 -126 2 -73 50 -69 210 5 250 35 19 91 19
119 -1z"/>
<path d="M2460 2350 c0 -142 9 -178 54 -220 37 -34 126 -35 173 -2 39 28 43
28 43 -3 0 -21 5 -25 30 -25 l30 0 0 190 0 190 -29 0 -29 0 -3 -131 -4 -131
-33 -29 c-23 -21 -43 -29 -70 -29 -81 0 -102 44 -102 213 l0 107 -30 0 -30 0
0 -130z"/>
<path d="M3949 2373 c105 -291 94 -268 130 -268 l33 0 64 179 c35 99 64 184
64 188 0 5 -14 8 -32 6 -32 -3 -32 -3 -77 -145 -24 -79 -47 -143 -50 -143 -4
0 -28 65 -54 145 l-48 145 -34 0 -34 0 38 -107z"/>
</g>
</svg>
